<svg width="28" height="28" viewBox="0 0 28 28" fill="none" xmlns="http://www.w3.org/2000/svg">
<path d="M2.625 25.375H20.125" stroke="#C1272D" stroke-width="2" stroke-miterlimit="10" stroke-linecap="round" stroke-linejoin="round"/>
<path d="M3.5 9.625V15.05C3.5 19.25 7 22.75 11.375 22.75C15.75 22.75 19.25 19.25 19.25 15.05V9.625H3.5Z" stroke="#C1272D" stroke-width="2" stroke-miterlimit="10" stroke-linecap="round" stroke-linejoin="round"/>
<path d="M21.875 18.375C20.3875 18.375 19.25 17.2375 19.25 15.75V13.125C19.25 11.725 20.3875 10.5 21.875 10.5C23.275 10.5 24.5 11.6375 24.5 13.125V15.75C24.5 17.2375 23.3625 18.375 21.875 18.375Z" stroke="#C1272D" stroke-width="2" stroke-miterlimit="10" stroke-linecap="round" stroke-linejoin="round"/>
<path d="M11.3749 1.75C10.3249 3.325 10.3249 5.425 11.3749 7" stroke="#C1272D" stroke-width="2" stroke-miterlimit="10" stroke-linecap="round" stroke-linejoin="round"/>
<path d="M7.8749 1.75C6.8249 3.325 6.8249 5.425 7.8749 7" stroke="#C1272D" stroke-width="2" stroke-miterlimit="10" stroke-linecap="round" stroke-linejoin="round"/>
<path d="M14.8749 1.75C13.8249 3.325 13.8249 5.425 14.8749 7" stroke="#C1272D" stroke-width="2" stroke-miterlimit="10" stroke-linecap="round" stroke-linejoin="round"/>
</svg>
