<svg width="28" height="28" viewBox="0 0 28 28" fill="none" xmlns="http://www.w3.org/2000/svg">
<g clip-path="url(#clip0_132_688)">
<path d="M27.8832 18.0563C27.7444 17.8159 20.7029 5.61974 20.4964 5.26203C20.3492 4.98821 20.0565 4.80249 19.7284 4.80249H18.0595V2.96696C18.0595 2.47958 17.6592 2.09595 17.1879 2.09595H10.812C10.3286 2.09595 9.94104 2.4909 9.94104 2.96696V4.80243H8.2716C7.96043 4.80243 7.67288 4.96846 7.51729 5.23796C7.43012 5.38901 0.3208 17.7028 0.116761 18.0563C-0.123645 18.4726 0.0190895 19.0056 0.43559 19.2461L4.232 21.4376C4.6485 21.678 5.18121 21.5353 5.42172 21.1187L7.40059 17.6911V25.0324C7.40059 25.6269 7.98186 26.0428 8.54137 25.8606L13.9999 24.0822L19.459 25.8606C20.0219 26.0439 20.5998 25.6236 20.5998 25.0324V17.6922L22.5781 21.1187C22.8186 21.5353 23.3512 21.678 23.7678 21.4376L27.5642 19.2461C27.9807 19.0058 28.1237 18.4728 27.8832 18.0563ZM4.34864 19.4935L2.06096 18.1729L2.70605 17.0556L4.99379 18.3761L4.34864 19.4935ZM13.129 22.5339L9.14271 23.8326V14.4404H9.14266V12.7754C9.14266 12.2944 8.75268 11.9044 8.27165 11.9044C7.79062 11.9044 7.40064 12.2944 7.40064 12.7754V14.2071L5.86464 16.8675L3.57695 15.547L8.77445 6.5445H10.5475L13.1289 8.27153L13.129 22.5339ZM12.4289 3.83796H15.5717L14.0001 6.22305L12.4289 3.83796ZM22.1353 16.8676L20.5999 14.2083V12.7755C20.5999 12.2945 20.2099 11.9045 19.7289 11.9045C19.2479 11.9045 18.8579 12.2945 18.8579 12.7755V14.4405C18.8579 14.4407 18.8579 14.4408 18.8579 14.4411C18.8579 14.4413 18.8579 14.4414 18.8579 14.4417V23.8327L14.871 22.5339V8.27148L17.4524 6.54445H19.2254L24.423 15.547L22.1353 16.8676ZM23.6514 19.4935L23.0063 18.3761L25.294 17.0556L25.9391 18.1729L23.6514 19.4935Z" fill="#C1272D"/>
<path d="M11.8567 18.2263H10.415C9.93392 18.2263 9.54395 18.6163 9.54395 19.0973C9.54395 19.5784 9.93392 19.9683 10.415 19.9683H11.8567C12.3377 19.9683 12.7277 19.5784 12.7277 19.0973C12.7277 18.6163 12.3378 18.2263 11.8567 18.2263Z" fill="#C1272D"/>
<path d="M17.5851 18.2263H16.1433C15.6623 18.2263 15.2723 18.6163 15.2723 19.0973C15.2723 19.5784 15.6623 19.9683 16.1433 19.9683H17.5851C18.0661 19.9683 18.4561 19.5784 18.4561 19.0973C18.4561 18.6163 18.0661 18.2263 17.5851 18.2263Z" fill="#C1272D"/>
</g>
<defs>
<clipPath id="clip0_132_688">
<rect width="28" height="28" fill="white"/>
</clipPath>
</defs>
</svg>
