<svg width="28" height="28" viewBox="0 0 28 28" fill="none" xmlns="http://www.w3.org/2000/svg">
<path d="M9.625 7.875V9.625" stroke="#C1272D" stroke-width="2" stroke-miterlimit="10" stroke-linecap="round" stroke-linejoin="round"/>
<path d="M18.375 7.875V9.625" stroke="#C1272D" stroke-width="2" stroke-miterlimit="10" stroke-linecap="round" stroke-linejoin="round"/>
<path d="M14 7V8.75" stroke="#C1272D" stroke-width="2" stroke-miterlimit="10" stroke-linecap="round" stroke-linejoin="round"/>
<path d="M24.325 12.25C23.5375 7.2625 19.1626 3.5 14 3.5C8.83755 3.5 4.46255 7.2625 3.67505 12.25H24.325Z" stroke="#C1272D" stroke-width="2" stroke-miterlimit="10" stroke-linecap="round" stroke-linejoin="round"/>
<path d="M3.5 14L4.8125 14.875C5.6 15.4 6.65 15.4 7.4375 14.875C8.225 14.35 9.275 14.35 10.0625 14.875C10.85 15.4 11.9 15.4 12.6875 14.875C13.475 14.35 14.525 14.35 15.3125 14.875C16.1 15.4 17.15 15.4 17.9375 14.875C18.725 14.35 19.775 14.35 20.5625 14.875C21.35 15.4 22.4 15.4 23.1875 14.875L24.5 14" stroke="#C1272D" stroke-width="2" stroke-miterlimit="10" stroke-linecap="round" stroke-linejoin="round"/>
<path d="M23.625 21H4.375C3.4125 21 2.625 20.2125 2.625 19.25C2.625 18.2875 3.4125 17.5 4.375 17.5H23.625C24.5875 17.5 25.375 18.2875 25.375 19.25C25.375 20.2125 24.5875 21 23.625 21Z" stroke="#C1272D" stroke-width="2" stroke-miterlimit="10" stroke-linecap="round" stroke-linejoin="round"/>
<path d="M23.625 21V22.225C23.625 23.5375 22.575 24.5 21.35 24.5H6.65C5.425 24.5 4.375 23.45 4.375 22.225V21" stroke="#C1272D" stroke-width="2" stroke-miterlimit="10" stroke-linecap="round" stroke-linejoin="round"/>
</svg>
