<svg width="28" height="28" viewBox="0 0 28 28" fill="none" xmlns="http://www.w3.org/2000/svg">
<path d="M23.3333 13.5579V21C23.3333 22.2887 22.2887 23.3333 21 23.3333H6.99997C5.71131 23.3333 4.66664 22.2887 4.66664 21V13.5579M8.74997 11.375C8.74997 12.8247 7.57472 14 6.12497 14C4.77627 14 3.66514 12.9829 3.51679 11.6739C3.49442 11.4763 3.52536 11.2776 3.57554 11.0853L4.79492 6.41098C5.06295 5.38354 5.99087 4.66663 7.05269 4.66663H20.9472C22.009 4.66663 22.937 5.38354 23.205 6.41098L24.4244 11.0853C24.4745 11.2776 24.5056 11.4763 24.4832 11.6739C24.3348 12.9829 23.2236 14 21.875 14C20.4253 14 19.25 12.8247 19.25 11.375M8.74997 11.375C8.74997 12.8247 9.92522 14 11.375 14C12.8247 14 14 12.8247 14 11.375M8.74997 11.375L9.3333 4.66663M19.25 11.375C19.25 12.8247 18.0747 14 16.625 14C15.1753 14 14 12.8247 14 11.375M19.25 11.375L18.6666 4.66663M14 11.375V4.66663" stroke="#C1272D" stroke-width="2" stroke-linecap="round" stroke-linejoin="round"/>
</svg>
