<svg width="28" height="28" viewBox="0 0 28 28" fill="none" xmlns="http://www.w3.org/2000/svg">
<path d="M5.83337 14C5.83337 10.7229 5.83337 9.08439 6.61985 7.90735C6.96033 7.3978 7.39783 6.9603 7.90738 6.61982C9.08442 5.83334 10.723 5.83334 14 5.83334C17.2771 5.83334 18.9157 5.83334 20.0927 6.61982C20.6022 6.9603 21.0397 7.3978 21.3803 7.90735C22.1667 9.08439 22.1667 10.7229 22.1667 14C22.1667 17.2771 22.1667 18.9156 21.3803 20.0927C21.0397 20.6022 20.6022 21.0397 20.0927 21.3802C18.9157 22.1667 17.2771 22.1667 14 22.1667C10.723 22.1667 9.08442 22.1667 7.90738 21.3802C7.39783 21.0397 6.96033 20.6022 6.61985 20.0927C5.83337 18.9156 5.83337 17.2771 5.83337 14Z" stroke="#C1272D" stroke-width="2"/>
<path d="M14 10.5V14.0897L16.3333 16.3333" stroke="#C1272D" stroke-width="2" stroke-linecap="round" stroke-linejoin="round"/>
<path d="M19.574 6.41668L19.4787 5.98767C19.0894 4.23577 18.8948 3.35981 18.255 2.84658C17.6152 2.33334 16.7178 2.33334 14.9232 2.33334H13.0767C11.2821 2.33334 10.3848 2.33334 9.74501 2.84658C9.10521 3.35981 8.91055 4.23577 8.52123 5.98767L8.4259 6.41668" stroke="#C1272D" stroke-width="2"/>
<path d="M19.574 6.41668L19.4787 5.98767C19.0894 4.23577 18.8948 3.35981 18.255 2.84658C17.6152 2.33334 16.7178 2.33334 14.9232 2.33334H13.0767C11.2821 2.33334 10.3848 2.33334 9.74501 2.84658C9.10521 3.35981 8.91055 4.23577 8.52123 5.98767L8.4259 6.41668" stroke="#C1272D" stroke-width="2"/>
<path d="M19.574 21.5833L19.4787 22.0123C19.0894 23.7642 18.8948 24.6402 18.255 25.1535C17.6152 25.6667 16.7178 25.6667 14.9232 25.6667H13.0767C11.2821 25.6667 10.3848 25.6667 9.74501 25.1535C9.10521 24.6402 8.91055 23.7643 8.52123 22.0123L8.4259 21.5833" stroke="#C1272D" stroke-width="2"/>
</svg>
